<svg xmlns="http://www.w3.org/2000/svg" width="1024" height="1024" viewBox="0 0 1024 1024">
      <defs>
        <radialGradient id="bg-2d4059ea5455f07b3fffd460-master" cx="0.5" cy="0.3" r="0.9">
          <stop offset="0" stop-color="#523f59"/><stop offset="1" stop-color="#261d29"/>
        </radialGradient>
        <linearGradient id="pk-2d4059ea5455f07b3fffd460-master" x1="0" y1="0" x2="0" y2="1">
          <stop offset="0" stop-color="#ffbf7b"/><stop offset="1" stop-color="#ff880a"/>
        </linearGradient>
        <linearGradient id="cb-2d4059ea5455f07b3fffd460-master" x1="0" y1="0" x2="0.6" y2="1">
          <stop offset="0" stop-color="#ee7879"/><stop offset="1" stop-color="#e42728"/>
        </linearGradient>
        <linearGradient id="cm-2d4059ea5455f07b3fffd460-master" x1="0" y1="0" x2="0.6" y2="1">
          <stop offset="0" stop-color="#f39565"/><stop offset="1" stop-color="#ea5b12"/>
        </linearGradient>
        <filter id="l1-2d4059ea5455f07b3fffd460-master" x="-40%" y="-40%" width="180%" height="180%">
          <feDropShadow dx="0" dy="14" stdDeviation="18" flood-color="#0f172a" flood-opacity="0.35"/>
        </filter>
        <filter id="l2-2d4059ea5455f07b3fffd460-master" x="-40%" y="-40%" width="180%" height="180%">
          <feDropShadow dx="0" dy="22" stdDeviation="30" flood-color="#0f172a" flood-opacity="0.42"/>
        </filter>
        <g id="code-2d4059ea5455f07b3fffd460-master">
          <rect x="0" width="14" height="120"/><rect x="20" width="8" height="120"/><rect x="34" width="8" height="120"/>
          <rect x="48" width="20" height="120"/><rect x="74" width="8" height="120"/><rect x="88" width="14" height="120"/>
          <rect x="108" width="8" height="120"/><rect x="122" width="20" height="120"/><rect x="148" width="8" height="120"/>
          <rect x="162" width="14" height="120"/><rect x="182" width="8" height="120"/><rect x="196" width="8" height="120"/>
          <rect x="210" width="20" height="120"/><rect x="236" width="8" height="120"/><rect x="250" width="14" height="120"/>
          <rect x="270" width="8" height="120"/><rect x="284" width="20" height="120"/><rect x="310" width="8" height="120"/>
          <rect x="324" width="14" height="120"/><rect x="344" width="16" height="120"/>
        </g>
      </defs>
      <rect width="1024" height="1024" fill="url(#bg-2d4059ea5455f07b3fffd460-master)"/>
      <g filter="url(#l1-2d4059ea5455f07b3fffd460-master)" transform="rotate(7 192 566)">
        <rect x="192" y="186" width="640" height="380" rx="40" fill="url(#cb-2d4059ea5455f07b3fffd460-master)"/>
        <circle cx="250" cy="243" r="18" fill="#9c1314" opacity="0.9"/>
        <rect x="284" y="228" width="195" height="30" rx="15" fill="#9c1314" opacity="0.9"/>
      </g>
      <g filter="url(#l1-2d4059ea5455f07b3fffd460-master)" transform="rotate(3.5 172 656)">
        <rect x="172" y="276" width="680" height="380" rx="40" fill="url(#cm-2d4059ea5455f07b3fffd460-master)"/>
        <circle cx="230" cy="333" r="18" fill="#fbddcd"/>
        <rect x="264" y="318" width="217" height="30" rx="15" fill="#fbddcd"/>
      </g>
      <g filter="url(#l1-2d4059ea5455f07b3fffd460-master)">
        <rect x="152" y="372" width="720" height="440" rx="44" fill="#ffffff"/>
        <circle cx="222" cy="445" r="20" fill="#ffb05c"/>
        <rect x="258" y="428" width="247" height="34" rx="17" fill="#ffb05c"/>
        <use href="#code-2d4059ea5455f07b3fffd460-master" transform="translate(202, 496) scale(1.7222, 1.72)" fill="#171d2a"/>
        
      </g>
      <g filter="url(#l2-2d4059ea5455f07b3fffd460-master)">
        <path d="M 132 824 V 588 Q 132 548 174 548 H 348 C 448 552 396 716 512 716 C 628 716 576 552 676 548 H 850 Q 892 548 892 588 V 824 Q 892 870 846 870 H 178 Q 132 870 132 824 Z"
              fill="url(#pk-2d4059ea5455f07b3fffd460-master)"/>
        <path d="M 164 810 V 610 Q 164 580 196 580 H 347 L 347 580 L 351 580 L 355 581 L 361 583 L 365 585 L 369 589 L 371 591 L 373 594 L 375 597 L 377 601 L 379 605 L 381 610 L 383 615 L 386 620 L 388 626 L 390 631 L 392 637 L 394 644 L 396 650 L 398 657 L 401 663 L 403 670 L 406 677 L 410 684 L 413 691 L 417 698 L 422 704 L 427 711 L 433 717 L 439 723 L 446 729 L 454 734 L 462 738 L 471 742 L 481 744 L 491 746 L 501 748 L 512 748 L 523 748 L 533 746 L 543 744 L 553 742 L 562 738 L 570 734 L 578 729 L 585 723 L 591 717 L 597 711 L 602 704 L 607 698 L 611 691 L 614 684 L 618 677 L 621 670 L 623 663 L 626 657 L 628 650 L 630 644 L 632 637 L 634 631 L 636 626 L 638 620 L 641 615 L 643 610 L 645 605 L 647 601 L 649 597 L 651 594 L 653 591 L 655 589 L 659 585 L 663 583 L 669 581 L 673 580 L 677 580 H 828 Q 860 580 860 610 V 810 Q 860 838 828 838 H 196 Q 164 838 164 810 Z"
              fill="none" stroke="#ffffff" stroke-width="8" stroke-dasharray="24 17" stroke-linecap="round" opacity="0.8"/>
        
        
      </g>
    </svg>